<svg xmlns="http://www.w3.org/2000/svg" 
id="gallery" width="24" height="24">

<path d="M0,0C21.12,0,42.24,0,64,0c0,20.46,0,40.92,0,62-21.12,0-42.24,0-64,0C0,41.54,0,21.08,0,0Z" fill="#dce8f3"/>
<path d="M0,0C19.8,0,39.6,0,60,0c0,9.24,0,18.48,0,28-19.8,0-39.6,0-60,0C0,18.76,0,9.52,0,0Z" transform="translate(2 32)" fill="#dce8f3"/>
<path d="M0,0C21.12,0,42.24,0,64,0c0,20.46,0,40.92,0,62-21.12,0-42.24,0-64,0C0,41.54,0,21.08,0,0ZM2,2c0,9.24,0,18.48,0,28c19.8,0,39.6,0,60,0c0-9.24,0-18.48,0-28C42.2,2,22.4,2,2,2ZM2,32c0,9.24,0,18.48,0,28c19.8,0,39.6,0,60,0c0-9.24,0-18.48,0-28-19.8,0-39.6,0-60,0Z" fill="#fff"/>
<path d="M0,0C7.59,0,15.18,0,23,0c0,6.6,0,13.2,0,20-7.59,0-15.18,0-23,0C0,13.4,0,6.8,0,0Z" transform="translate(6 36)" fill="#3498db"/>
<path d="M0,0C7.59,0,15.18,0,23,0c0,6.6,0,13.2,0,20-7.59,0-15.18,0-23,0C0,13.4,0,6.8,0,0Z" transform="translate(6 6)" fill="#3498db"/>
</svg>
